# xmcd
#
# Track frame offsets: 
#        150
#        28455
#        53093
#        72198
#        99700
#        116556
#        138022
#        155244
#        175710
#        197400
#        209784
#        230118
#        251574
#        270202
#
# Disc length: 3829 seconds
#
# Revision: 0
# Processed by: cddbd v1.5.2PL0 Copyright (c) Steve Scherf et al.
# Submitted via: ExactAudioCopy v0.95b4
#
DISCID=cc0ef30e
DTITLE=Joe Bataan feat. The Raza All-Stars - The Message
DYEAR=2006
DGENRE=Latin
TTITLE0=Chicana Lady (New)
TTITLE1=Good Ole Days (New)
TTITLE2=What Good is a Castle (Rare)
TTITLE3=The Prayer (Live) with The Message
TTITLE4=Ordinary Guy (Live)
TTITLE5=My Cloud (Live)
TTITLE6=Poor Boy (Rare)
TTITLE7=Super Girl (Rare)
TTITLE8=Ordinary Guy Part 2 (Old)
TTITLE9=I Do Love You (Rare)
TTITLE10=I Wish You Love Part 2 (Live)
TTITLE11=My Cloud Part 2 (Rare)
TTITLE12=Peace, Friendship, Solidarity. (Old)
TTITLE13=Sad Girl (Live)
EXTD=
EXTT0=
EXTT1=
EXTT2=
EXTT3=
EXTT4=
EXTT5=
EXTT6=
EXTT7=
EXTT8=
EXTT9=
EXTT10=
EXTT11=
EXTT12=
EXTT13=
PLAYORDER=
